<svg width="12" height="12" viewBox="0 0 12 12" fill="none" xmlns="http://www.w3.org/2000/svg">
<path d="M6 0C9.31371 0 12 2.68629 12 6C12 9.31371 9.31371 12 6 12C2.68629 12 0 9.31371 0 6C0 2.68629 2.68629 0 6 0ZM6.00195 2.57129C5.67899 2.57129 5.41717 2.83333 5.41699 3.15625V5.41602H3.15625C2.83318 5.41602 2.57129 5.67791 2.57129 6.00098C2.57149 6.32387 2.83331 6.58594 3.15625 6.58594H5.41699V8.84375C5.41714 9.16669 5.67898 9.42871 6.00195 9.42871C6.32474 9.42849 6.58676 9.16656 6.58691 8.84375V6.58594H8.84277C9.16559 6.58579 9.42753 6.32378 9.42773 6.00098C9.42773 5.678 9.16571 5.41617 8.84277 5.41602H6.58691V3.15625C6.58674 2.83347 6.32473 2.57151 6.00195 2.57129Z" fill="#AEB9E1"/>
</svg>
