<svg width="14" height="14" viewBox="0 0 14 14" fill="none" xmlns="http://www.w3.org/2000/svg">
<path d="M8.73975 0C9.01583 7.45899e-05 9.23975 0.223904 9.23975 0.5V3.11523L11.5063 1.80664C11.7453 1.66882 12.0508 1.7505 12.189 1.98926L13.9312 5.00781C14.0691 5.2468 13.9873 5.5522 13.7485 5.69043L11.481 6.99902L13.7485 8.30859C13.9874 8.4467 14.0689 8.75217 13.9312 8.99121L12.189 12.0098C12.0509 12.2488 11.7454 12.3304 11.5063 12.1924L9.23975 10.8828V13.5C9.23975 13.7761 9.01582 13.9999 8.73975 14H5.25537C4.97936 13.9998 4.75537 13.776 4.75537 13.5V10.8828L2.49268 12.1904C2.25356 12.3284 1.9471 12.2469 1.80908 12.0078L0.0668945 8.98926C-0.0707045 8.75023 0.0116444 8.44467 0.250488 8.30664L2.51318 6.99902L0.250488 5.69238C0.0116116 5.55428 -0.0709035 5.24881 0.0668945 5.00977L1.80908 1.99121C1.94715 1.75222 2.25362 1.67065 2.49268 1.80859L4.75537 3.11523V0.5C4.75537 0.223951 4.97936 0.000151275 5.25537 0H8.73975ZM6.99951 5.12695C5.96541 5.12695 5.12646 5.96568 5.12646 7C5.1266 8.03421 5.96549 8.87305 6.99951 8.87305C8.03337 8.87286 8.87145 8.03409 8.87158 7C8.87158 5.9658 8.03345 5.12714 6.99951 5.12695Z" fill="#AEB9E1"/>
</svg>
