<svg width="12" height="12" viewBox="0 0 12 12" fill="none" xmlns="http://www.w3.org/2000/svg">
<path d="M6.0006 0C4.75068 0.00141795 3.55236 0.498575 2.66853 1.3824C1.78471 2.26623 1.28755 3.46455 1.28613 4.71447C1.28613 8.74855 5.57201 11.7969 5.75416 11.9255C5.82716 11.9741 5.9129 12 6.0006 12C6.0883 12 6.17404 11.9741 6.24704 11.9255C6.42919 11.7969 10.7151 8.74855 10.7151 4.71447C10.7137 3.46455 10.2165 2.26623 9.33267 1.3824C8.44884 0.498575 7.25052 0.00141795 6.0006 0V0ZM6.0006 3.00012C6.33967 3.00012 6.67112 3.10066 6.95304 3.28904C7.23497 3.47741 7.4547 3.74516 7.58446 4.05841C7.71421 4.37167 7.74816 4.71637 7.68201 5.04892C7.61586 5.38147 7.45259 5.68694 7.21283 5.9267C6.97307 6.16646 6.66761 6.32973 6.33505 6.39588C6.0025 6.46203 5.6578 6.42808 5.34455 6.29832C5.03129 6.16857 4.76355 5.94884 4.57517 5.66691C4.38679 5.38499 4.28625 5.05354 4.28625 4.71447C4.28625 4.25979 4.46687 3.82374 4.78837 3.50224C5.10987 3.18074 5.54593 3.00012 6.0006 3.00012V3.00012Z" fill="#AEB9E1"/>
</svg>
