<svg width="14" height="14" viewBox="0 0 14 14" fill="none" xmlns="http://www.w3.org/2000/svg">
<path d="M6.9978 2.43652C11.1533 2.43652 13.2659 5.50069 13.8933 6.60742C14.0328 6.85355 14.0328 7.14644 13.8933 7.39258C13.2661 8.49914 11.1535 11.5645 6.9978 11.5645C2.84219 11.5644 0.729516 8.49913 0.102295 7.39258C-0.0371156 7.14646 -0.0371942 6.85351 0.102295 6.60742C0.729566 5.50081 2.84228 2.43659 6.9978 2.43652ZM6.99878 4.46484C5.59864 4.4651 4.46362 5.60078 4.46362 7.00098C4.46385 8.40098 5.59879 9.53587 6.99878 9.53613C8.39899 9.53613 9.53468 8.40114 9.53491 7.00098C9.53491 5.60062 8.39914 4.46484 6.99878 4.46484Z" fill="#AEB9E1"/>
</svg>
