<svg width="16" height="16" viewBox="0 0 16 16" fill="none" xmlns="http://www.w3.org/2000/svg">
<path d="M11.5024 0.888672C10.8156 0.888672 10.1382 1.04932 9.52391 1.35788C8.90961 1.66645 8.37527 2.11447 7.96319 2.66645C7.40607 1.9202 6.62937 1.36897 5.74308 1.09083C4.8568 0.8127 3.90587 0.821765 3.025 1.11675C2.14413 1.41173 1.37798 1.97767 0.835063 2.7344C0.292149 3.49114 0 4.40031 0 5.33312C0 10.659 7.36595 14.859 7.67563 15.0368C7.76337 15.0864 7.86253 15.1119 7.96319 15.1109C8.06392 15.1126 8.16326 15.087 8.25074 15.0368C9.60721 14.2402 10.8795 13.307 12.048 12.2516C14.6213 9.92571 15.9264 7.59978 15.9264 5.33312C15.9264 4.15438 15.4603 3.02391 14.6306 2.19042C13.801 1.35692 12.6757 0.888672 11.5024 0.888672V0.888672Z" fill="#05C168"/>
</svg>
