<svg width="20" height="21" viewBox="0 0 20 21" fill="none" xmlns="http://www.w3.org/2000/svg">
<path d="M10.8869 10.0088C10.8869 9.49052 10.4691 9.07033 9.95369 9.07033C9.43831 9.07033 9.02051 9.49052 9.02051 10.0088C9.02051 10.5272 9.43831 10.9474 9.95369 10.9474C10.4691 10.9474 10.8869 10.5272 10.8869 10.0088Z" fill="white"/>
<path d="M10.8869 5.00494C10.8869 4.48661 10.4691 4.06642 9.95369 4.06642C9.43831 4.06642 9.02051 4.48661 9.02051 5.00494C9.02051 5.52326 9.43831 5.94345 9.95369 5.94345C10.4691 5.94345 10.8869 5.52326 10.8869 5.00494Z" fill="white"/>
<path d="M10.8869 15.0167C10.8869 14.4983 10.4691 14.0781 9.95369 14.0781C9.43831 14.0781 9.02051 14.4983 9.02051 15.0167C9.02051 15.535 9.43831 15.9552 9.95369 15.9552C10.4691 15.9552 10.8869 15.535 10.8869 15.0167Z" fill="white"/>
</svg>
