<svg width="20" height="21" viewBox="0 0 20 21" fill="none" xmlns="http://www.w3.org/2000/svg">
<path d="M10.9322 10.0088C10.9322 9.49052 10.5127 9.07033 9.99515 9.07033C9.47763 9.07033 9.05811 9.49052 9.05811 10.0088C9.05811 10.5272 9.47763 10.9474 9.99515 10.9474C10.5127 10.9474 10.9322 10.5272 10.9322 10.0088Z" fill="white"/>
<path d="M10.9322 5.00494C10.9322 4.48661 10.5127 4.06642 9.99515 4.06642C9.47763 4.06642 9.05811 4.48661 9.05811 5.00494C9.05811 5.52326 9.47763 5.94345 9.99515 5.94345C10.5127 5.94345 10.9322 5.52326 10.9322 5.00494Z" fill="white"/>
<path d="M10.9322 15.0167C10.9322 14.4983 10.5127 14.0781 9.99515 14.0781C9.47763 14.0781 9.05811 14.4983 9.05811 15.0167C9.05811 15.535 9.47763 15.9552 9.99515 15.9552C10.5127 15.9552 10.9322 15.535 10.9322 15.0167Z" fill="white"/>
</svg>
