<svg width="15" height="3" viewBox="0 0 15 3" fill="none" xmlns="http://www.w3.org/2000/svg">
<path d="M7.09356 2.44277C7.77788 2.44277 8.33263 1.89594 8.33263 1.22139C8.33263 0.546833 7.77788 0 7.09356 0C6.40924 0 5.85449 0.546833 5.85449 1.22139C5.85449 1.89594 6.40924 2.44277 7.09356 2.44277Z" fill="#D9E1FA"/>
<path d="M12.9485 2.44277C13.6329 2.44277 14.1876 1.89594 14.1876 1.22139C14.1876 0.546833 13.6329 0 12.9485 0C12.2642 0 11.7095 0.546833 11.7095 1.22139C11.7095 1.89594 12.2642 2.44277 12.9485 2.44277Z" fill="#D9E1FA"/>
<path d="M1.23907 2.44277C1.92339 2.44277 2.47814 1.89594 2.47814 1.22139C2.47814 0.546833 1.92339 0 1.23907 0C0.55475 0 0 0.546833 0 1.22139C0 1.89594 0.55475 2.44277 1.23907 2.44277Z" fill="#D9E1FA"/>
</svg>
