<svg width="9" height="10" viewBox="0 0 9 10" fill="none" xmlns="http://www.w3.org/2000/svg">
<path d="M0 8.40872C0 6.87696 1.24174 5.63522 2.77349 5.63522H5.87854C7.4103 5.63522 8.65204 6.87696 8.65204 8.40872V8.40872C8.65204 8.9193 8.23813 9.33322 7.72754 9.33322H0.924498C0.413912 9.33322 0 8.9193 0 8.40872V8.40872Z" fill="#AEB9E1"/>
<path d="M4.32763 4.93063C5.6892 4.93063 6.79296 3.82686 6.79296 2.4653C6.79296 1.10373 5.6892 -3.05176e-05 4.32763 -3.05176e-05C2.96607 -3.05176e-05 1.8623 1.10373 1.8623 2.4653C1.8623 3.82686 2.96607 4.93063 4.32763 4.93063Z" fill="#AEB9E1"/>
</svg>
