<svg width="15" height="3" viewBox="0 0 15 3" fill="none" xmlns="http://www.w3.org/2000/svg">
<path d="M7.09381 2.44277C7.77812 2.44277 8.33287 1.89594 8.33287 1.22139C8.33287 0.546833 7.77812 0 7.09381 0C6.40949 0 5.85474 0.546833 5.85474 1.22139C5.85474 1.89594 6.40949 2.44277 7.09381 2.44277Z" fill="#D9E1FA"/>
<path d="M12.9483 2.44277C13.6326 2.44277 14.1874 1.89594 14.1874 1.22139C14.1874 0.546833 13.6326 0 12.9483 0C12.264 0 11.7092 0.546833 11.7092 1.22139C11.7092 1.89594 12.264 2.44277 12.9483 2.44277Z" fill="#D9E1FA"/>
<path d="M1.23907 2.44277C1.92339 2.44277 2.47814 1.89594 2.47814 1.22139C2.47814 0.546833 1.92339 0 1.23907 0C0.55475 0 0 0.546833 0 1.22139C0 1.89594 0.55475 2.44277 1.23907 2.44277Z" fill="#D9E1FA"/>
</svg>
