<svg width="14" height="14" viewBox="0 0 14 14" fill="none" xmlns="http://www.w3.org/2000/svg">
<path d="M4.13185 5.76479C4.6416 5.76479 5.10891 5.52804 5.48693 5.16426C5.09043 4.45326 4.8641 3.64888 4.8641 2.87704C4.8641 2.22247 5.022 1.60503 5.29993 1.05983C4.95521 0.84844 4.55231 0.724548 4.12014 0.724548C2.85691 0.724548 1.83301 1.76329 1.83301 3.04449C1.83301 4.32588 2.86862 5.76479 4.13185 5.76479Z" fill="#CB3CFF"/>
<path d="M5.67007 6.86502C5.44684 6.81686 5.21575 6.79021 4.97826 6.79021H3.27737C1.46742 6.79021 0 8.26221 0 10.0781L0.00768472 10.4669C0.00768472 10.9742 0.417721 11.3856 0.923451 11.3856H2.60056C2.68289 9.36529 3.92105 7.64293 5.67007 6.86502Z" fill="#CB3CFF"/>
<path d="M8.81241 6.24975C10.3786 6.24975 11.634 4.46545 11.634 2.87672C11.634 1.288 10.3642 0 8.79795 0C7.23173 0 5.96191 1.288 5.96191 2.87672C5.9621 4.46545 7.24618 6.24975 8.81241 6.24975Z" fill="#CB3CFF"/>
<path d="M13.9259 11.5987C13.9259 9.34699 12.1064 7.52169 9.86208 7.52169H7.75298C5.50867 7.52169 3.68921 9.34699 3.68921 11.5987L3.69891 12.0809C3.69891 12.7099 4.2072 13.22 4.83442 13.22H12.8002C13.4273 13.22 13.9357 12.7099 13.9357 12.0809L13.9259 11.5987Z" fill="#CB3CFF"/>
</svg>
