<svg width="14" height="15" viewBox="0 0 14 15" fill="none" xmlns="http://www.w3.org/2000/svg">
<path d="M0 13.4539C0 11.0031 1.98678 9.01636 4.43759 9.01636H9.34196C11.7928 9.01636 13.7796 11.0031 13.7796 13.4539V13.4539C13.7796 14.2709 13.1173 14.9331 12.3004 14.9331H1.4792C0.662261 14.9331 0 14.2709 0 13.4539V13.4539Z" fill="#FDB52A"/>
<path d="M6.89244 7.88902C9.06091 7.88902 10.8188 6.123 10.8188 3.9445C10.8188 1.76599 9.06091 -3.05176e-05 6.89244 -3.05176e-05C4.72396 -3.05176e-05 2.96606 1.76599 2.96606 3.9445C2.96606 6.123 4.72396 7.88902 6.89244 7.88902Z" fill="#FDB52A"/>
</svg>
