<svg width="14" height="14" viewBox="0 0 14 14" fill="none" xmlns="http://www.w3.org/2000/svg">
<path d="M6.57784 0.56142C6.76629 0.237869 7.23371 0.237868 7.42216 0.561419L9.41868 3.98923C9.48772 4.10775 9.60339 4.1918 9.73745 4.22083L13.6144 5.06038C13.9804 5.13962 14.1248 5.58417 13.8754 5.86338L11.2323 8.82143C11.1409 8.92371 11.0967 9.0597 11.1105 9.19617L11.5101 13.1428C11.5478 13.5154 11.1697 13.7901 10.827 13.6391L7.19701 12.0395C7.07149 11.9842 6.92851 11.9842 6.80299 12.0395L3.17296 13.6391C2.83032 13.7901 2.45216 13.5154 2.48988 13.1428L2.88948 9.19617C2.9033 9.0597 2.85911 8.92371 2.76772 8.82143L0.12464 5.86338C-0.124841 5.58417 0.0196004 5.13962 0.385551 5.06038L4.26255 4.22083C4.39661 4.1918 4.51228 4.10775 4.58132 3.98923L6.57784 0.56142Z" fill="#A14BFF"/>
</svg>
