<svg width="11" height="12" viewBox="0 0 11 12" fill="none" xmlns="http://www.w3.org/2000/svg">
<path d="M3.8568 0.857149H6.42824C6.54191 0.857149 6.65092 0.811996 6.73129 0.731622C6.81167 0.651249 6.85682 0.542239 6.85682 0.428574C6.85682 0.314909 6.81167 0.2059 6.73129 0.125527C6.65092 0.0451533 6.54191 0 6.42824 0L3.8568 0C3.74313 0 3.63412 0.0451533 3.55375 0.125527C3.47338 0.2059 3.42822 0.314909 3.42822 0.428574C3.42822 0.542239 3.47338 0.651249 3.55375 0.731622C3.63412 0.811996 3.74313 0.857149 3.8568 0.857149V0.857149Z" fill="#AEB9E1"/>
<path d="M5.1429 1.7142C4.12573 1.7142 3.1314 2.01583 2.28566 2.58094C1.43991 3.14604 0.780735 3.94925 0.391482 4.889C0.00222834 5.82874 -0.0996181 6.8628 0.0988216 7.86042C0.297261 8.85805 0.787074 9.77442 1.50632 10.4937C2.22557 11.2129 3.14194 11.7027 4.13957 11.9012C5.13719 12.0996 6.17125 11.9978 7.11099 11.6085C8.05074 11.2193 8.85395 10.5601 9.41905 9.71433C9.98416 8.86859 10.2858 7.87426 10.2858 6.8571C10.283 5.49399 9.74021 4.18751 8.77634 3.22365C7.81248 2.25978 6.50601 1.71703 5.1429 1.7142V1.7142ZM7.5697 5.04101L5.44825 7.16245C5.36634 7.24166 5.25685 7.28594 5.1429 7.28594C5.02894 7.28594 4.91945 7.24166 4.83754 7.16245C4.75706 7.0812 4.71191 6.97146 4.71191 6.8571C4.71191 6.74273 4.75706 6.63299 4.83754 6.55174L6.95898 4.43029C6.99741 4.38347 7.04521 4.34522 7.09931 4.31798C7.15342 4.29075 7.21262 4.27515 7.27312 4.27218C7.33362 4.2692 7.39407 4.27893 7.45058 4.30073C7.50709 4.32253 7.55841 4.35592 7.60124 4.39875C7.64407 4.44158 7.67746 4.4929 7.69926 4.54941C7.72106 4.60592 7.73079 4.66637 7.72781 4.72687C7.72484 4.78737 7.70924 4.84657 7.68201 4.90068C7.65478 4.95478 7.61652 5.00258 7.5697 5.04101V5.04101Z" fill="#AEB9E1"/>
</svg>
