<svg width="10" height="14" viewBox="0 0 10 14" fill="none" xmlns="http://www.w3.org/2000/svg">
<path d="M4.66895 0C5.18321 0 5.60059 0.417374 5.60059 0.931641V1.40234C6.02882 1.40254 6.45298 1.48652 6.84863 1.65039C7.24478 1.81448 7.60501 2.0552 7.9082 2.3584C8.21135 2.66157 8.45116 3.02188 8.61523 3.41797C8.77928 3.814 8.86421 4.23833 8.86426 4.66699C8.86426 5.18126 8.44688 5.59863 7.93262 5.59863C7.41856 5.59839 7.00195 5.18111 7.00195 4.66699C7.00191 4.48305 6.96584 4.30082 6.89551 4.13086C6.82502 3.9607 6.72105 3.80603 6.59082 3.67578C6.46056 3.54552 6.30594 3.44159 6.13574 3.37109C5.96561 3.30066 5.78277 3.26465 5.59863 3.26465H3.49805C3.12617 3.26478 2.7698 3.41282 2.50684 3.67578C2.24388 3.93877 2.0958 4.2951 2.0957 4.66699C2.0957 5.03904 2.24376 5.3961 2.50684 5.65918C2.76979 5.9221 3.12621 6.07019 3.49805 6.07031H6.06543C6.9314 6.07031 7.76267 6.41404 8.375 7.02637C8.9872 7.63861 9.33097 8.46916 9.33105 9.33496C9.33105 10.2009 8.98733 11.0322 8.375 11.6445C7.76268 12.2568 6.93136 12.6006 6.06543 12.6006H5.60059V13.0684C5.60059 13.5826 5.18321 14 4.66895 14C4.15475 13.9999 3.73828 13.5826 3.73828 13.0684V12.6006H3.26465C2.3989 12.6005 1.56826 12.2567 0.956055 11.6445C0.343724 11.0322 0 10.2009 0 9.33496C0.000171797 8.82084 0.41748 8.4043 0.931641 8.4043C1.44558 8.40456 1.86213 8.821 1.8623 9.33496C1.8623 9.70701 2.01036 10.0641 2.27344 10.3271C2.53639 10.5901 2.89282 10.7382 3.26465 10.7383H4.65039C4.65657 10.7382 4.66274 10.7373 4.66895 10.7373C4.67543 10.7373 4.68203 10.7381 4.68848 10.7383H6.06543C6.43744 10.7383 6.79455 10.5902 7.05762 10.3271C7.32069 10.0641 7.46875 9.70701 7.46875 9.33496C7.46867 8.96307 7.32056 8.60674 7.05762 8.34375C6.79454 8.08067 6.43748 7.93262 6.06543 7.93262H3.49805C2.63229 7.93249 1.80166 7.58873 1.18945 6.97656C0.577123 6.36423 0.233398 5.53296 0.233398 4.66699C0.233492 3.80118 0.577245 2.97064 1.18945 2.3584C1.80167 1.74618 2.63225 1.40247 3.49805 1.40234H3.73828V0.931641C3.73828 0.417425 4.15475 8.34668e-05 4.66895 0Z" fill="#AEB9E1"/>
</svg>
