<svg width="37" height="37" viewBox="0 0 37 37" fill="none" xmlns="http://www.w3.org/2000/svg">
<path opacity="0.5" d="M0 18.1159C0 8.11076 8.11076 0 18.1159 0C28.121 0 36.2318 8.11076 36.2318 18.1159C36.2318 28.121 28.121 36.2318 18.1159 36.2318C8.11076 36.2318 0 28.121 0 18.1159Z" fill="#0B1739"/>
<path opacity="0.2" d="M0 18.1159C0 8.11076 8.11076 0 18.1159 0C28.121 0 36.2318 8.11076 36.2318 18.1159C36.2318 28.121 28.121 36.2318 18.1159 36.2318C8.11076 36.2318 0 28.121 0 18.1159Z" fill="#CB3CFF"/>
<path opacity="0.4" d="M8.25 18.1159C8.25 12.6671 12.6671 8.25 18.1159 8.25C23.5647 8.25 27.9818 12.6671 27.9818 18.1159C27.9818 23.5647 23.5647 27.9818 18.1159 27.9818C12.6671 27.9818 8.25 23.5647 8.25 18.1159Z" fill="#CB3CFF"/>
<rect x="13.7051" y="13.705" width="8.82098" height="8.82098" rx="4.41049" fill="#9A91FB"/>
</svg>
