<svg width="14" height="14" viewBox="0 0 14 14" fill="none" xmlns="http://www.w3.org/2000/svg">
<path d="M6.99805 2.43652C11.1535 2.43652 13.2662 5.50069 13.8936 6.60742C14.0331 6.85355 14.033 7.14644 13.8936 7.39258C13.2663 8.49914 11.1538 11.5645 6.99805 11.5645C2.84244 11.5644 0.729761 8.49913 0.102539 7.39258C-0.0368715 7.14646 -0.0369501 6.85351 0.102539 6.60742C0.72981 5.50081 2.84252 2.43659 6.99805 2.43652ZM6.99902 4.46484C5.59889 4.4651 4.46387 5.60078 4.46387 7.00098C4.4641 8.40098 5.59903 9.53587 6.99902 9.53613C8.39924 9.53613 9.53493 8.40114 9.53516 7.00098C9.53516 5.60062 8.39938 4.46484 6.99902 4.46484Z" fill="#AEB9E1"/>
</svg>
