<svg width="14" height="3" viewBox="0 0 14 3" fill="none" xmlns="http://www.w3.org/2000/svg">
<path d="M7.00005 2.44277C7.67533 2.44277 8.22275 1.89594 8.22275 1.22139C8.22275 0.546833 7.67533 0 7.00005 0C6.32477 0 5.77734 0.546833 5.77734 1.22139C5.77734 1.89594 6.32477 2.44277 7.00005 2.44277Z" fill="#D9E1FA"/>
<path d="M12.7774 2.44277C13.4527 2.44277 14.0001 1.89594 14.0001 1.22139C14.0001 0.546833 13.4527 0 12.7774 0C12.1021 0 11.5547 0.546833 11.5547 1.22139C11.5547 1.89594 12.1021 2.44277 12.7774 2.44277Z" fill="#D9E1FA"/>
<path d="M1.2227 2.44277C1.89798 2.44277 2.44541 1.89594 2.44541 1.22139C2.44541 0.546833 1.89798 0 1.2227 0C0.547423 0 0 0.546833 0 1.22139C0 1.89594 0.547423 2.44277 1.2227 2.44277Z" fill="#D9E1FA"/>
</svg>
