<svg width="44" height="45" viewBox="0 0 44 45" fill="none" xmlns="http://www.w3.org/2000/svg">
<g clip-path="url(#clip0_61_1954)">
<path d="M21.7995 11.9694C24.6975 11.9694 27.599 11.9585 30.497 11.9694C34.3167 11.991 37.5554 13.4073 40.1521 16.2253C42.0745 18.3135 43.1863 20.8028 43.4804 23.6461C43.8391 27.1397 42.9496 30.2938 40.812 33.0576C38.6995 35.7889 35.9127 37.4147 32.5127 37.9566C31.7989 38.0686 31.0816 38.112 30.3607 38.112C28.5244 38.112 26.6844 38.112 24.8481 38.1084C24.5827 38.1084 24.3424 38.1589 24.0985 38.2673C20.3828 39.9184 16.6635 41.5659 12.9478 43.2133C12.1623 43.5602 11.3769 43.9106 10.5914 44.2574C10.2937 44.3875 10.265 44.373 10.265 44.0407C10.265 42.0861 10.2579 40.1352 10.2722 38.1806C10.2722 37.8916 10.179 37.7976 9.90637 37.7182C4.65561 36.2188 1.34877 32.7938 0.272792 27.4071C-0.541364 23.339 0.534613 19.6539 3.2138 16.4963C5.22229 14.1262 7.79746 12.6992 10.8496 12.1572C11.567 12.0308 12.295 11.9694 13.0267 11.9694C15.9534 11.9694 18.88 11.9694 21.8103 11.9694H21.7995ZM21.7887 15.1812C18.8513 15.1812 15.9139 15.1812 12.9765 15.1812C12.6071 15.1812 12.2377 15.1992 11.8718 15.2462C9.19264 15.6003 6.97254 16.807 5.31554 18.9638C3.18152 21.7457 2.64712 24.8672 3.74103 28.1838C5.10393 32.3097 8.82322 34.9038 13.1415 34.9038C18.6074 34.9038 24.077 34.9038 29.543 34.9038C30.0881 34.9038 30.6297 34.9038 31.1749 34.8676C33.5707 34.7231 35.6437 33.8127 37.3546 32.1363C39.6643 29.871 40.6363 27.0855 40.2884 23.8556C40.0553 21.6843 39.1514 19.802 37.6487 18.234C35.6832 16.1783 33.2587 15.1812 30.4288 15.1776C27.5488 15.1776 24.6652 15.1776 21.7852 15.1776L21.7887 15.1812Z" fill="white"/>
<path d="M21.6844 8.72864C21.6844 8.22645 21.6808 7.72427 21.6844 7.22208C21.6844 7.04144 21.6198 6.93666 21.4584 6.84996C20.074 6.08403 19.3531 4.68224 19.5862 3.08898C19.8194 1.49571 21.0065 0.33598 22.6061 0.0505648C24.672 -0.314333 26.7092 1.38732 26.7415 3.50084C26.7666 5.01463 26.1031 6.12016 24.8155 6.86079C24.6505 6.95473 24.6111 7.07395 24.6111 7.24737C24.6111 8.23368 24.6111 9.21999 24.6111 10.2063C24.6111 10.5965 24.6075 10.6001 24.2309 10.6037C23.492 10.6037 22.7532 10.5929 22.0144 10.6073C21.7561 10.6109 21.6736 10.5134 21.6772 10.2641C21.688 9.75108 21.6772 9.24167 21.6772 8.72864H21.6844Z" fill="white"/>
<path d="M21.7919 32.6529C18.8832 32.6529 15.9745 32.6168 13.0658 32.6602C9.44689 32.7144 6.11136 30.0409 5.50164 26.1787C4.86682 22.1793 7.66077 18.2268 11.6347 17.5368C12.1727 17.4428 12.7143 17.3995 13.2594 17.3995C18.9944 17.3995 24.7294 17.3995 30.4643 17.3995C31.9384 17.3995 33.3228 17.7499 34.571 18.5556C36.5938 19.8598 37.8132 21.7132 38.0966 24.123C38.5808 28.2344 35.8478 31.8726 31.7878 32.5771C31.3574 32.6529 30.9234 32.6566 30.4894 32.6566C27.5879 32.6566 24.6899 32.6566 21.7884 32.6566L21.7919 32.6529ZM15.1711 27.5588C16.577 27.5588 17.6781 26.4641 17.6817 25.0623C17.6853 23.6353 16.5591 22.4864 15.1603 22.4972C13.7795 22.5081 12.6569 23.6569 12.6569 25.0587C12.6569 26.4533 13.7651 27.5588 15.1675 27.5588H15.1711ZM28.42 27.5588C29.8367 27.5552 30.927 26.4497 30.9234 25.0226C30.9198 23.6389 29.7864 22.5008 28.4164 22.4936C27.0212 22.49 25.895 23.6425 25.9022 25.066C25.9093 26.4677 27.0176 27.5624 28.4235 27.5552L28.42 27.5588Z" fill="white"/>
</g>
<defs>
<clipPath id="clip0_61_1954">
<rect width="43.5556" height="44.3333" fill="white"/>
</clipPath>
</defs>
</svg>
