<svg width="46" height="45" viewBox="0 0 46 45" fill="none" xmlns="http://www.w3.org/2000/svg">
<g filter="url(#filter0_d_2_18218)">
<rect width="46" height="45" rx="22.5" fill="#1D9BF0"/>
<path d="M26.8679 13.0792V13.0751H27.9463L28.3404 13.1521C28.6031 13.2021 28.8416 13.2676 29.0559 13.3486C29.2702 13.4297 29.4776 13.5242 29.6781 13.6323C29.8786 13.7403 30.0604 13.8504 30.2236 13.9625C30.3853 14.0733 30.5305 14.1908 30.6591 14.315C30.7863 14.4407 30.9847 14.4731 31.2543 14.4123C31.5239 14.3515 31.8142 14.2671 32.1253 14.159C32.4364 14.051 32.7441 13.9294 33.0482 13.7944C33.3524 13.6593 33.5377 13.5735 33.6041 13.537C33.6691 13.4992 33.7036 13.479 33.7078 13.4763L33.7119 13.4702L33.7326 13.4601L33.7534 13.4499L33.7741 13.4398L33.7949 13.4297L33.799 13.4236L33.8052 13.4195L33.8115 13.4155L33.8156 13.4094L33.8363 13.4033L33.8571 13.3993L33.853 13.4297L33.8467 13.4601L33.8363 13.4904L33.826 13.5208L33.8156 13.5411L33.8052 13.5614L33.7949 13.5917C33.788 13.612 33.781 13.639 33.7741 13.6728C33.7672 13.7066 33.7015 13.8416 33.5771 14.078C33.4527 14.3144 33.2971 14.5541 33.1105 14.7972C32.9238 15.0404 32.7565 15.2241 32.6086 15.3483C32.4593 15.4739 32.3604 15.5617 32.312 15.6117C32.2636 15.663 32.2049 15.7103 32.1357 15.7535L32.032 15.8204L32.0113 15.8305L31.9905 15.8407L31.9864 15.8467L31.9802 15.8508L31.9739 15.8548L31.9698 15.8609L31.9491 15.8711L31.9283 15.8812L31.9242 15.8873L31.9179 15.8913L31.9117 15.8954L31.9076 15.9014L31.9034 15.9075L31.8972 15.9116L31.891 15.9156L31.8868 15.9217H31.9905L32.5712 15.8001C32.9584 15.7191 33.3282 15.6212 33.6808 15.5064L34.2408 15.324L34.303 15.3038L34.3341 15.2936L34.3548 15.2835L34.3756 15.2734L34.3963 15.2632L34.417 15.2531L34.4585 15.247L34.5 15.243V15.2835L34.4896 15.2876L34.4793 15.2936L34.4751 15.2997L34.4689 15.3038L34.4627 15.3078L34.4585 15.3139L34.4544 15.32L34.4482 15.324L34.4419 15.3281L34.4378 15.3342L34.4337 15.3402L34.4274 15.3443L34.417 15.3645L34.4067 15.3848L34.4004 15.3889C34.3977 15.3929 34.3099 15.5077 34.1371 15.7333C33.9642 15.9602 33.8709 16.075 33.8571 16.0777C33.8433 16.0818 33.8239 16.102 33.799 16.1385C33.7755 16.1763 33.6289 16.3269 33.3593 16.5903C33.0897 16.8537 32.8257 17.088 32.5671 17.2933C32.3072 17.5 32.1758 17.7539 32.1731 18.0551C32.1689 18.355 32.153 18.694 32.1253 19.0722C32.0977 19.4504 32.0458 19.859 31.9698 20.298C31.8938 20.737 31.7762 21.2333 31.6172 21.7871C31.4582 22.3409 31.2647 22.8812 31.0365 23.408C30.8084 23.9347 30.5699 24.4075 30.321 24.8262C30.0721 25.2449 29.844 25.5995 29.6366 25.8899C29.4292 26.1803 29.2184 26.4538 29.0041 26.7104C28.7898 26.9671 28.5188 27.2561 28.1911 27.5776C27.862 27.8977 27.6823 28.0733 27.6519 28.1043C27.6201 28.1341 27.4846 28.2448 27.2454 28.4366C27.0076 28.6298 26.7518 28.8229 26.478 29.0161C26.2056 29.2079 25.9554 29.3679 25.7272 29.4962C25.4991 29.6246 25.224 29.7711 24.9018 29.9359C24.581 30.102 24.234 30.256 23.8607 30.3978C23.4874 30.5397 23.0933 30.6714 22.6785 30.7929C22.2638 30.9145 21.8628 31.009 21.4757 31.0766C21.0885 31.1441 20.6495 31.2015 20.1587 31.2488L19.4225 31.3197V31.3298H18.0744V31.3197L17.8981 31.3096C17.7806 31.3028 17.6838 31.296 17.6078 31.2893C17.5317 31.2826 17.2448 31.2454 16.7471 31.1779C16.2493 31.1103 15.8587 31.0428 15.5753 30.9753C15.2919 30.9077 14.8702 30.7794 14.3102 30.5903C13.7502 30.4012 13.2711 30.2101 12.8729 30.0169C12.4761 29.8251 12.2273 29.7036 12.1263 29.6523C12.0268 29.6023 11.9148 29.5402 11.7904 29.4659L11.6037 29.3544L11.5996 29.3483L11.5933 29.3443L11.5871 29.3402L11.583 29.3342L11.5622 29.324L11.5415 29.3139L11.5374 29.3078L11.5311 29.3038L11.5249 29.2997L11.5207 29.2936L11.5166 29.2876L11.5104 29.2835H11.5V29.243L11.5207 29.247L11.5415 29.2531L11.6348 29.2633C11.697 29.27 11.8664 29.2801 12.1429 29.2936C12.4195 29.3072 12.7133 29.3072 13.0243 29.2936C13.3354 29.2801 13.6535 29.2497 13.9784 29.2025C14.3033 29.1552 14.687 29.0742 15.1294 28.9593C15.5719 28.8445 15.9783 28.7081 16.3489 28.5501C16.7181 28.3907 16.9807 28.2718 17.137 28.1935C17.2918 28.1165 17.5283 27.9733 17.8463 27.764L18.3233 27.4499L18.3274 27.4439L18.3336 27.4398L18.3399 27.4358L18.344 27.4297L18.3482 27.4236L18.3544 27.4195L18.3606 27.4155L18.3647 27.4094L18.3855 27.4033L18.4062 27.3993L18.4104 27.379L18.4166 27.3588L18.4228 27.3547L18.427 27.3486L18.261 27.3385C18.1504 27.3318 18.0433 27.325 17.9396 27.3182C17.8359 27.3115 17.6734 27.2811 17.4522 27.2271C17.231 27.173 16.9925 27.092 16.7367 26.9839C16.4809 26.8759 16.232 26.7476 15.9901 26.599C15.7481 26.4504 15.5732 26.3268 15.4654 26.2282C15.3589 26.131 15.2206 25.9932 15.0506 25.8149C14.8819 25.6353 14.7353 25.4509 14.6109 25.2618C14.4865 25.0727 14.3676 24.8545 14.2542 24.6074L14.0821 24.2386L14.0717 24.2083L14.0613 24.1779L14.0551 24.1576L14.0509 24.1373L14.0821 24.1414L14.1132 24.1475L14.3413 24.1779C14.4934 24.1981 14.7319 24.2049 15.0568 24.1981C15.3817 24.1914 15.6064 24.1779 15.7308 24.1576C15.8553 24.1373 15.9313 24.1238 15.959 24.1171L16.0005 24.107L16.0523 24.0968L16.1041 24.0867L16.1083 24.0806L16.1145 24.0766L16.1208 24.0725L16.1249 24.0664L16.0834 24.0563L16.0419 24.0462L16.0005 24.036L15.959 24.0259L15.9175 24.0158C15.8898 24.009 15.8415 23.9955 15.7723 23.9753C15.7032 23.955 15.5165 23.8807 15.2124 23.7524C14.9082 23.6241 14.6662 23.4991 14.4865 23.3776C14.3063 23.2557 14.1345 23.1223 13.9721 22.9784C13.8104 22.8326 13.6327 22.6448 13.4391 22.4152C13.2456 22.1856 13.0728 21.9188 12.9206 21.6149C12.7686 21.311 12.6545 21.0206 12.5784 20.7437C12.5027 20.4684 12.4527 20.187 12.4291 19.9029L12.3918 19.4774L12.4125 19.4815L12.4333 19.4876L12.454 19.4977L12.4748 19.5078L12.4955 19.5179L12.5162 19.5281L12.8377 19.6699C13.052 19.7645 13.3182 19.8455 13.6362 19.913C13.9542 19.9806 14.1443 20.0177 14.2065 20.0245L14.2998 20.0346H14.4865L14.4823 20.0285L14.4761 20.0245L14.4699 20.0204L14.4657 20.0143L14.4616 20.0083L14.4554 20.0042L14.4491 20.0001L14.445 19.9941L14.4243 19.9839L14.4035 19.9738L14.3994 19.9677L14.3931 19.9637L14.3869 19.9596L14.3828 19.9535L14.362 19.9434L14.3413 19.9333L14.3372 19.9272C14.333 19.9245 14.2736 19.8813 14.1588 19.7975C14.0454 19.7124 13.9265 19.6024 13.8021 19.4673C13.6776 19.3322 13.5532 19.1904 13.4288 19.0418C13.3041 18.8929 13.1931 18.7336 13.0969 18.5657C13.0002 18.3969 12.8978 18.1821 12.79 17.9214C12.6835 17.6621 12.6027 17.4007 12.5473 17.1373C12.492 16.8739 12.4609 16.6139 12.454 16.3573C12.4471 16.1007 12.454 15.8812 12.4748 15.6988C12.4955 15.5165 12.537 15.3105 12.5992 15.0809C12.6614 14.8513 12.7513 14.6082 12.8688 14.3515L13.0451 13.9666L13.0555 13.9362L13.0658 13.9058L13.0721 13.9017L13.0762 13.8957L13.0803 13.8896L13.0866 13.8855L13.0928 13.8896L13.0969 13.8957L13.1011 13.9017L13.1073 13.9058L13.1135 13.9098L13.1177 13.9159L13.1218 13.922L13.128 13.926L13.1384 13.9463L13.1488 13.9666L13.155 13.9706L13.1592 13.9767L13.4391 14.2806C13.6258 14.4832 13.847 14.7095 14.1028 14.9593C14.3586 15.2092 14.5003 15.3389 14.528 15.3483C14.5556 15.3591 14.5902 15.3902 14.6317 15.4415C14.6731 15.4915 14.8114 15.6111 15.0464 15.8001C15.2815 15.9892 15.5891 16.2087 15.9693 16.4586C16.3496 16.7085 16.7713 16.955 17.2344 17.1981C17.6976 17.4412 18.1954 17.6607 18.7277 17.8566C19.26 18.0524 19.6333 18.1808 19.8476 18.2415C20.0619 18.3023 20.4283 18.38 20.9468 18.4745C21.4653 18.5691 21.8559 18.6299 22.1186 18.6569C22.3813 18.6839 22.561 18.6994 22.6578 18.7035L22.803 18.7075L22.7988 18.6771L22.7926 18.6467L22.7511 18.3935C22.7235 18.2247 22.7096 17.9883 22.7096 17.6844C22.7096 17.3805 22.7339 17.1002 22.7822 16.8436C22.8306 16.5869 22.9032 16.3269 23 16.0635C23.0968 15.8001 23.1915 15.5887 23.2841 15.4294C23.3782 15.2713 23.5012 15.091 23.6533 14.8884C23.8054 14.6858 24.0024 14.4765 24.2444 14.2603C24.4863 14.0442 24.7628 13.8517 25.0739 13.6829C25.385 13.5141 25.6719 13.3858 25.9346 13.298C26.1973 13.2102 26.4186 13.1528 26.5983 13.1258C26.778 13.0987 26.8679 13.0832 26.8679 13.0792V13.0792Z" fill="white"/>
</g>
<defs>
<filter id="filter0_d_2_18218" x="-7.5" y="-6" width="61" height="60" filterUnits="userSpaceOnUse" color-interpolation-filters="sRGB">
<feFlood flood-opacity="0" result="BackgroundImageFix"/>
<feColorMatrix in="SourceAlpha" type="matrix" values="0 0 0 0 0 0 0 0 0 0 0 0 0 0 0 0 0 0 127 0" result="hardAlpha"/>
<feOffset dy="1.5"/>
<feGaussianBlur stdDeviation="3.75"/>
<feComposite in2="hardAlpha" operator="out"/>
<feColorMatrix type="matrix" values="0 0 0 0 0.0984896 0 0 0 0 0.364094 0 0 0 0 0.7625 0 0 0 0.07 0"/>
<feBlend mode="normal" in2="BackgroundImageFix" result="effect1_dropShadow_2_18218"/>
<feBlend mode="normal" in="SourceGraphic" in2="effect1_dropShadow_2_18218" result="shape"/>
</filter>
</defs>
</svg>
