<svg width="46" height="46" viewBox="0 0 46 46" fill="none" xmlns="http://www.w3.org/2000/svg">
<g filter="url(#filter0_d_2_18130)">
<rect width="46" height="46" rx="23" fill="#FF550D"/>
<path d="M36.2682 21.8803C36.2722 22.1499 36.2387 22.4189 36.1679 22.6791C36.0971 22.9393 35.9899 23.1886 35.8492 23.4188C35.709 23.649 35.5369 23.8585 35.3382 24.041C35.1395 24.2234 34.9162 24.3769 34.6747 24.4969C34.6801 24.5687 34.6846 24.641 34.687 24.7133C34.6929 24.8575 34.6929 25.0019 34.687 25.1461C34.6846 25.2184 34.6801 25.2907 34.6747 25.3625C34.6747 29.7693 29.54 33.3498 23.2053 33.3498C16.8705 33.3498 11.7358 29.7693 11.7358 25.3625C11.7304 25.2907 11.7259 25.2184 11.7235 25.1461C11.7176 25.0019 11.7176 24.8575 11.7235 24.7133C11.7259 24.641 11.7304 24.5687 11.7358 24.4969C11.3574 24.323 11.0214 24.0689 10.7509 23.7524C10.4805 23.4358 10.282 23.0642 10.1693 22.6633C10.0568 22.2623 10.0328 21.8416 10.0991 21.4304C10.1653 21.0192 10.3202 20.6273 10.5529 20.2819C10.7855 19.9366 11.0904 19.6459 11.4465 19.4302C11.8026 19.2145 12.2014 19.0788 12.6152 19.0327C13.029 18.9863 13.448 19.0304 13.8431 19.1621C14.2381 19.2937 14.5999 19.5097 14.9032 19.795C15.4662 19.4133 16.0562 19.0729 16.6683 18.7764C17.2807 18.4803 17.9137 18.2285 18.5624 18.0239C19.2111 17.8193 19.8741 17.6624 20.5454 17.5537C21.2168 17.445 21.8955 17.3855 22.5757 17.3752L24.0315 10.5486C24.0478 10.4694 24.0797 10.3947 24.1255 10.3278C24.1707 10.2614 24.2292 10.2043 24.2966 10.1605C24.3645 10.1168 24.4402 10.0868 24.5199 10.072C24.5991 10.0577 24.6807 10.0592 24.7594 10.0764L29.5794 11.0404C30.0658 10.2048 31.0868 9.84675 31.9883 10.195C32.8899 10.5432 33.4053 11.4949 33.2037 12.4402C33.0025 13.3855 32.1438 14.0445 31.1788 13.9948C30.2133 13.9452 29.4269 13.2015 29.3236 12.2405L25.1135 11.3552L23.8348 17.4932C24.5066 17.5075 25.177 17.5704 25.84 17.6811C27.1677 17.9024 28.4564 18.3142 29.6664 18.9038C30.2708 19.1979 30.8531 19.5352 31.409 19.913C31.8086 19.5293 32.3108 19.2695 32.8549 19.165C33.3991 19.0601 33.9619 19.1149 34.4755 19.3228C34.9892 19.5307 35.4318 19.8827 35.7499 20.3365C36.068 20.7903 36.2481 21.3265 36.2682 21.8803V21.8803ZM16.7446 24.6007C16.8439 24.8392 16.9885 25.0561 17.1715 25.2386C17.354 25.4215 17.5708 25.5661 17.8094 25.6655C18.0481 25.7642 18.304 25.815 18.5624 25.815C19.3582 25.815 20.0752 25.3355 20.3802 24.6007C20.6846 23.8654 20.5159 23.0194 19.9533 22.4568C19.3906 21.8941 18.5447 21.7254 17.8094 22.0299C17.0746 22.3348 16.5951 23.0519 16.5951 23.8477C16.5951 24.1059 16.6457 24.3616 16.7446 24.6007V24.6007ZM28.0124 29.3232C28.1132 29.2248 28.1708 29.0906 28.1727 28.9499C28.1747 28.8088 28.1201 28.673 28.0217 28.5722C27.9234 28.4714 27.7891 28.4138 27.6484 28.4118C27.5073 28.4099 27.3715 28.4645 27.2579 28.5496C26.9621 28.7617 26.6488 28.9485 26.3215 29.1078C25.9941 29.2672 25.6539 29.3986 25.3044 29.5008C24.9552 29.6026 24.5976 29.6749 24.2361 29.7167C23.8741 29.7585 23.5097 29.7693 23.1462 29.7496C22.7833 29.7659 22.4193 29.7511 22.0588 29.7059C21.6982 29.6611 21.3421 29.5854 20.9945 29.4796C20.6463 29.3744 20.3084 29.2396 19.9833 29.0773C19.6582 28.915 19.3473 28.7251 19.0542 28.5102C18.9524 28.4266 18.823 28.3838 18.6912 28.3902C18.5594 28.3966 18.435 28.4522 18.3415 28.5451C18.2486 28.6386 18.193 28.763 18.1866 28.8948C18.1802 29.0266 18.223 29.156 18.3066 29.2578C18.6524 29.5185 19.0198 29.7486 19.4049 29.9464C19.79 30.1441 20.1918 30.3078 20.6049 30.4367C21.0181 30.5656 21.4415 30.6585 21.8709 30.7151C22.3003 30.7712 22.7336 30.7903 23.1659 30.7726C23.5982 30.7903 24.0315 30.7712 24.4609 30.7151C25.3209 30.602 26.155 30.3419 26.9269 29.9464C27.312 29.7486 27.6794 29.5185 28.0252 29.2578L28.0124 29.3232ZM27.6514 25.9724C27.918 25.9753 28.1826 25.9237 28.429 25.8214C28.6754 25.7186 28.8982 25.5671 29.0841 25.3758C29.27 25.1845 29.4146 24.9572 29.51 24.7079C29.6055 24.4588 29.6492 24.1929 29.6384 23.9264C29.6384 23.1306 29.1588 22.4135 28.4241 22.1086C27.6888 21.8041 26.8428 21.9728 26.2802 22.5355C25.7175 23.0981 25.5488 23.9441 25.8533 24.6794C26.1582 25.4141 26.8753 25.8937 27.6711 25.8937L27.6514 25.9724Z" fill="white"/>
</g>
<defs>
<filter id="filter0_d_2_18130" x="-7.5" y="-6" width="61" height="61" filterUnits="userSpaceOnUse" color-interpolation-filters="sRGB">
<feFlood flood-opacity="0" result="BackgroundImageFix"/>
<feColorMatrix in="SourceAlpha" type="matrix" values="0 0 0 0 0 0 0 0 0 0 0 0 0 0 0 0 0 0 127 0" result="hardAlpha"/>
<feOffset dy="1.5"/>
<feGaussianBlur stdDeviation="3.75"/>
<feComposite in2="hardAlpha" operator="out"/>
<feColorMatrix type="matrix" values="0 0 0 0 0.0984896 0 0 0 0 0.364094 0 0 0 0 0.7625 0 0 0 0.07 0"/>
<feBlend mode="normal" in2="BackgroundImageFix" result="effect1_dropShadow_2_18130"/>
<feBlend mode="normal" in="SourceGraphic" in2="effect1_dropShadow_2_18130" result="shape"/>
</filter>
</defs>
</svg>
