<svg width="14" height="14" viewBox="0 0 14 14" fill="none" xmlns="http://www.w3.org/2000/svg">
<path d="M3.36257 13.72C3.21408 13.72 3.07168 13.661 2.96668 13.556C2.86169 13.451 2.8027 13.3086 2.8027 13.1601V10.1718C2.49555 10.3184 2.15515 10.3811 1.81594 10.3538C1.52872 10.3327 1.24969 10.2485 0.998699 10.1073C0.747707 9.96611 0.530926 9.77132 0.363785 9.53679C0.196643 9.30227 0.0832509 9.03378 0.0316773 8.75045C-0.0198963 8.46712 -0.00838304 8.1759 0.0653976 7.89752C0.139178 7.61914 0.273412 7.36045 0.458547 7.13985C0.643681 6.91925 0.875164 6.74217 1.13652 6.62122C1.39788 6.50026 1.68268 6.4384 1.97067 6.44004C2.25865 6.44168 2.54274 6.50677 2.8027 6.63069V3.64241C2.8027 3.49393 2.86169 3.35152 2.96668 3.24653C3.07168 3.14153 3.21408 3.08255 3.36257 3.08255H6.63078C6.48426 2.7754 6.42149 2.43499 6.44882 2.09579C6.46992 1.80857 6.55408 1.52954 6.69529 1.27855C6.8365 1.02755 7.0313 0.810772 7.26582 0.643631C7.50035 0.47649 7.76883 0.363097 8.05217 0.311524C8.3355 0.25995 8.62672 0.271463 8.9051 0.345244C9.18347 0.419024 9.44217 0.553259 9.66276 0.738393C9.88336 0.923527 10.0604 1.15501 10.1814 1.41637C10.3024 1.67772 10.3642 1.96253 10.3626 2.25051C10.3609 2.5385 10.2958 2.82258 10.1719 3.08255H13.4401C13.5886 3.08255 13.731 3.14153 13.836 3.24653C13.941 3.35152 14 3.49393 14 3.64241V6.63069C13.6929 6.48417 13.3524 6.4214 13.0132 6.44874C12.726 6.46984 12.447 6.55399 12.196 6.6952C11.945 6.83641 11.7282 7.03121 11.5611 7.26574C11.3939 7.50026 11.2805 7.76874 11.229 8.05208C11.1774 8.33541 11.1889 8.62663 11.2627 8.90501C11.3365 9.18339 11.4707 9.44208 11.6558 9.66268C11.841 9.88328 12.0725 10.0604 12.3338 10.1813C12.5952 10.3023 12.88 10.3641 13.168 10.3625C13.456 10.3609 13.74 10.2958 14 10.1718V13.1601C14 13.3086 13.941 13.451 13.836 13.556C13.731 13.661 13.5886 13.72 13.4401 13.72H3.36257Z" fill="#AEB9E1"/>
</svg>
