<svg width="14" height="14" viewBox="0 0 14 14" fill="none" xmlns="http://www.w3.org/2000/svg">
<path d="M10.2989 4.98864C10.2989 4.98864 9.17241 8.52887 9.09196 8.85071C9.09196 8.52887 8.2069 2.17255 8.2069 2.17255C6.27586 2.17255 5.22989 3.54036 4.74713 4.98864C4.74713 4.98864 3.43604 7.74617 3.35558 8.06801C3.27512 7.82663 3.05747 5.0691 3.05747 5.0691C2.89655 3.29898 1.28736 2.17255 0 2.17255L1.6092 11.8277C3.62069 11.8277 4.74713 10.4599 5.31034 9.01163C5.31034 9.01163 6.51724 5.8737 6.5977 5.71278C6.5977 5.8737 7.48276 11.8277 7.48276 11.8277C9.49425 11.8277 10.6207 10.5404 11.1839 9.17255L14 2.17255C11.908 2.17255 10.8621 3.54036 10.2989 4.98864Z" fill="#AEB9E1"/>
</svg>
