<svg width="27" height="27" viewBox="0 0 27 27" fill="none" xmlns="http://www.w3.org/2000/svg">
<path d="M13.3735 -1.90186e-07C5.98753 -1.90186e-07 0 5.98753 0 13.3735C0 19.0391 3.52501 23.8825 8.49982 25.8311C8.38296 24.773 8.27728 23.1457 8.5462 21.9906C8.78924 20.9468 10.1144 15.3431 10.1144 15.3431C10.1144 15.3431 9.71437 14.542 9.71437 13.3576C9.71437 11.498 10.7922 10.1097 12.1342 10.1097C13.2752 10.1097 13.8263 10.9663 13.8263 11.9935C13.8263 13.1409 13.0958 14.8565 12.7188 16.4463C12.4037 17.7773 13.3863 18.8628 14.6992 18.8628C17.0761 18.8628 18.9032 16.3566 18.9032 12.7388C18.9032 9.53677 16.6024 7.298 13.317 7.298C9.51178 7.298 7.27827 10.1521 7.27827 13.1017C7.27827 14.2511 7.72104 15.4836 8.27356 16.1537C8.38285 16.2861 8.39886 16.4021 8.3663 16.5372C8.26479 16.9596 8.03918 17.868 7.99489 18.0539C7.93657 18.2987 7.80107 18.3507 7.54762 18.2327C5.87736 17.4553 4.83307 15.0132 4.83307 13.0518C4.83307 8.8332 7.8982 4.95892 13.6694 4.95892C18.3087 4.95892 21.9139 8.26479 21.9139 12.6828C21.9139 17.2918 19.0079 21.0011 14.9743 21.0011C13.6191 21.0011 12.3452 20.2971 11.9091 19.4655C11.9091 19.4655 11.2385 22.0189 11.0759 22.6446C10.774 23.8062 9.95894 25.2622 9.41377 26.1505C10.665 26.538 11.9948 26.7469 13.3735 26.7469C20.7595 26.7469 26.747 20.7594 26.747 13.3735C26.747 5.98753 20.7595 -1.90186e-07 13.3735 -1.90186e-07Z" fill="white"/>
</svg>
