<svg width="25" height="25" viewBox="0 0 25 25" fill="none" xmlns="http://www.w3.org/2000/svg">
<path d="M24.7639 12.6558C24.7639 11.8411 24.6901 11.0676 24.5636 10.3148H12.6511V14.9659H19.4718C19.1661 16.4922 18.27 17.7813 16.9417 18.6578V21.7517H21.0109C23.3934 19.5963 24.7639 16.42 24.7639 12.6558Z" fill="#4285F4"/>
<path d="M12.6522 24.7505C16.0678 24.7505 18.9246 23.6367 21.0119 21.7495L16.9427 18.6557C15.8042 19.3982 14.36 19.8519 12.6522 19.8519C9.35251 19.8519 6.55889 17.6759 5.5574 14.7368H1.36169V17.9234C3.43846 21.9661 7.70797 24.7505 12.6522 24.7505Z" fill="#34A853"/>
<path d="M5.55562 14.7363C5.29207 13.9938 5.15503 13.1997 5.15503 12.3747C5.15503 11.5497 5.30262 10.7556 5.55562 10.0131V6.82642H1.35991C0.495472 8.49709 0 10.374 0 12.3747C0 14.3754 0.495472 16.2523 1.35991 17.923L5.55562 14.7363Z" fill="#FBBC05"/>
<path d="M12.6522 4.89858C14.5181 4.89858 16.1837 5.52767 17.5015 6.75489L21.1068 3.22791C18.9246 1.22722 16.0678 0 12.6522 0C7.70797 0 3.43846 2.78446 1.36169 6.82708L5.5574 10.0137C6.55889 7.07459 9.35251 4.89858 12.6522 4.89858Z" fill="#EA4335"/>
</svg>
