<svg width="26" height="18" viewBox="0 0 26 18" fill="none" xmlns="http://www.w3.org/2000/svg">
<path d="M24.7477 2.71709C24.6022 2.19215 24.3188 1.71361 23.9256 1.32902C23.5325 0.944422 23.0433 0.667159 22.5067 0.524777C20.542 1.38301e-07 12.6342 0 12.6342 0C12.6342 0 4.72596 0.0154689 2.76086 0.540246C2.22426 0.682627 1.73509 0.959891 1.34195 1.34449C0.948806 1.72908 0.665381 2.20762 0.519836 2.73255C0 4.65493 0 8.6741 0 8.6741C0 8.6741 0 12.6933 0.536044 14.6311C0.681589 15.1561 0.965014 15.6346 1.35816 16.0192C1.7513 16.4038 2.24047 16.681 2.77707 16.8234C4.74177 17.3482 12.65 17.3482 12.65 17.3482C12.65 17.3482 20.5582 17.3482 22.5233 16.8238C23.0599 16.6814 23.5491 16.4042 23.9422 16.0196C24.3354 15.635 24.6188 15.1564 24.7644 14.6315C25.3 12.7091 25.3 8.6741 25.3 8.6741C25.3 8.6741 25.2842 4.65493 24.7477 2.71709Z" fill="#FF0000"/>
<path d="M10.1162 12.3919L16.6765 8.67472L10.1158 4.95758L10.1162 12.3919Z" fill="white"/>
</svg>
