<svg width="21" height="20" viewBox="0 0 21 20" fill="none" xmlns="http://www.w3.org/2000/svg">
<path d="M0 2.29004C0 1.62625 0.233115 1.07863 0.699324 0.647186C1.16553 0.215722 1.77163 0 2.51757 0C3.2502 0 3.84295 0.212396 4.29585 0.637229C4.76206 1.07532 4.99517 1.64616 4.99517 2.34978C4.99517 2.98701 4.76873 3.51802 4.31583 3.94286C3.84962 4.38095 3.23687 4.6 2.47761 4.6H2.45763C1.72499 4.6 1.13225 4.38095 0.679344 3.94286C0.226441 3.50476 0 2.95382 0 2.29004ZM0.259749 19.7143V6.41212H4.69546V19.7143H0.259749ZM7.15309 19.7143H11.5888V12.2866C11.5888 11.8219 11.6421 11.4635 11.7486 11.2113C11.9351 10.7599 12.2182 10.3782 12.5978 10.0662C12.9775 9.75425 13.4537 9.59827 14.0264 9.59827C15.5183 9.59827 16.2643 10.6006 16.2643 12.6052V19.7143H20.7V12.0874C20.7 10.1226 20.2338 8.63246 19.3014 7.61688C18.3689 6.6013 17.1368 6.0935 15.6049 6.0935C13.8866 6.0935 12.5479 6.8303 11.5888 8.30389V8.34372H11.5688L11.5888 8.30389V6.41212H7.15309C7.17972 6.83693 7.19305 8.15785 7.19305 10.3749C7.19305 12.5919 7.17972 15.705 7.15309 19.7143Z" fill="white"/>
</svg>
