<svg width="104" height="15" viewBox="0 0 104 15" fill="none" xmlns="http://www.w3.org/2000/svg">
<path d="M1.99329 9.5308C1.99329 8.19796 1.97514 6.8688 2.00054 5.53595C2.01868 4.70753 2.0332 4.20311 0.875786 3.98956C-0.680731 3.70606 0.356947 2.21121 0.14288 1.27969C-0.0639294 0.377633 0.625437 0.35186 1.27126 0.373951C1.69214 0.388679 2.11665 0.414452 2.53389 0.370269C3.51715 0.270858 4.21014 0.421816 4.00333 1.6847C3.95254 1.9903 3.82192 2.45053 4.29359 2.60886C4.73624 2.75981 5.04464 2.53522 5.39295 2.22226C8.61483 -0.668022 11.4303 -0.749024 14.7937 2.03816C15.4142 2.55363 15.5702 2.15598 15.8967 1.85407C18.1571 -0.251969 20.7876 -0.413972 23.4398 0.731094C25.9615 1.82093 26.6835 4.10002 26.6254 6.71784C26.5783 8.95642 26.5093 11.2024 26.6472 13.4336C26.7524 15.1273 25.7256 14.9248 24.7061 14.9027C23.741 14.8843 22.6199 15.2709 22.7323 13.4999C22.8738 11.2686 22.7904 9.0227 22.7686 6.78411C22.7432 4.43507 21.72 3.38942 19.5141 3.38205C17.2718 3.37469 16.2378 4.37984 16.1942 6.72152C16.1543 8.96011 16.06 11.2097 16.2196 13.4373C16.3575 15.3371 15.142 14.8253 14.1552 14.91C13.0014 15.0094 12.2104 14.9321 12.312 13.3563C12.4535 11.1251 12.3918 8.87911 12.3338 6.64052C12.2757 4.38352 11.2526 3.38942 9.13367 3.37469C6.91318 3.35628 5.80657 4.39825 5.75577 6.6847C5.70498 8.9822 5.6433 11.2907 5.77392 13.5809C5.87913 15.4439 4.62739 14.818 3.74936 14.8916C2.77336 14.9726 1.79736 15.1125 1.96426 13.5146C2.10213 12.1965 1.99329 10.8563 1.99329 9.52344V9.5308Z" fill="#F9F0FF"/>
<path d="M74.4277 8.39691C74.6382 10.1458 75.3783 11.3498 76.9603 11.718C78.5639 12.0898 80.1966 12.1929 81.4049 10.6429C82.3772 9.3947 83.7414 10.109 84.917 10.0722C85.5483 10.0538 85.2 10.6944 85.073 11.0589C84.2784 13.3417 81.579 14.9175 78.4732 14.9138C72.991 14.9138 69.7038 10.6318 71.0607 5.25994C71.9968 1.55597 75.4944 -0.465389 79.8411 0.182622C83.3387 0.701768 85.5701 3.54418 85.5193 7.2408C85.5048 8.29013 85.0585 8.419 84.2059 8.40795C80.9731 8.3785 77.7367 8.39691 74.4314 8.39691H74.4277ZM81.8548 5.90427C81.55 3.95655 80.4325 3.1944 78.8651 3.03608C77.3013 2.87776 75.8718 3.2165 74.9502 4.66716C74.4386 5.46981 74.4531 5.95582 75.6359 5.92268C77.6641 5.86745 79.6923 5.90795 81.8548 5.90795V5.90427Z" fill="#F9F0FF"/>
<path d="M89.4124 9.34684C89.4124 8.0729 89.4015 6.80265 89.4124 5.52872C89.4196 4.73343 89.4341 4.24006 88.3094 3.96392C86.9415 3.62887 87.8631 2.12666 87.6599 1.16569C87.4495 0.17526 88.2876 0.385127 88.8572 0.374082C89.3398 0.366718 89.8296 0.444038 90.3013 0.374082C91.1829 0.241534 91.5059 0.561858 91.4333 1.45287C91.4043 1.82843 91.1975 2.36598 91.6764 2.59058C92.2134 2.84463 92.5435 2.42121 92.8846 2.05302C94.7822 0.0022113 97.1768 -0.240793 99.6984 0.355672C102.245 0.959501 103.86 2.93299 103.951 5.55818C104.045 8.28277 103.951 11.011 103.998 13.7356C104.034 15.6613 102.612 14.715 101.806 14.8844C100.91 15.0722 100.181 14.958 100.239 13.6436C100.333 11.4676 100.301 9.28056 100.254 7.10089C100.195 4.47202 99.0853 3.34904 96.6761 3.36745C94.2416 3.38586 93.164 4.53093 93.1495 7.14507C93.1386 9.32474 93.0733 11.5118 93.1712 13.6878C93.2402 15.2563 92.2097 14.9359 91.3789 14.8918C90.5553 14.8513 89.3071 15.4477 89.4015 13.7025C89.4777 12.2518 89.416 10.7938 89.416 9.34315L89.4124 9.34684Z" fill="#F9F0FF"/>
<path d="M70.2915 0.230488C68.1653 5.04271 66.1517 9.66716 64.0727 14.2622C63.6337 15.2342 60.1143 15.2599 59.6716 14.2769C57.5636 9.63034 55.5318 4.95066 53.4456 0.223125C56.0724 -0.000243023 57.8684 1.02946 58.8335 3.31223C59.8168 5.63918 60.8 7.96245 61.9465 10.6723C63.0858 7.96613 64.0945 5.5729 65.0922 3.17968C65.9993 1.00982 67.7324 0.0255302 70.2915 0.226807V0.230488Z" fill="#F9F0FF"/>
<path d="M33.6027 12.5427C35.8667 12.2703 37.7026 10.9264 39.7199 10.0501C42.3903 8.89028 42.3722 8.84978 43.7364 11.3424C44.1972 12.1892 44.6471 13.0434 45.1333 13.8719C45.536 14.5604 45.5904 14.9323 44.5818 14.9286C39.9558 14.8991 35.3261 14.8954 30.7001 14.9323C29.4556 14.9433 29.6516 14.3984 30.0543 13.651C32.4526 9.21797 34.8508 4.7813 37.2636 0.318853C39.2918 2.59794 39.2809 2.63844 37.4704 4.95435C35.562 7.39912 33.6825 9.86598 31.7886 12.3218C31.7668 12.6495 30.9795 13.2091 32.0571 13.2091C32.6739 13.2091 33.1673 12.9477 33.6027 12.539V12.5427Z" fill="#F9F0FF"/>
<path d="M51.8565 10.6502C51.8565 11.3719 51.7658 12.1082 51.8746 12.8115C52.1431 14.6009 51.3812 14.9875 49.7013 14.9728C48.1303 14.958 47.586 14.5862 47.7203 12.9661C47.869 11.173 47.7965 9.35788 47.7384 7.55744C47.7094 6.65538 47.9235 6.18041 48.9176 6.29087C49.451 6.34978 49.9952 6.34242 50.5285 6.29087C51.5082 6.19514 51.9617 6.51178 51.8746 7.58689C51.7912 8.60309 51.8565 9.63034 51.8565 10.6539V10.6502Z" fill="#F9F0FF"/>
<path d="M33.6027 12.5427C33.1673 12.9477 32.6739 13.2128 32.0571 13.2128C30.9795 13.2128 31.7668 12.6568 31.7886 12.3255C32.5251 12.4764 32.8371 11.8579 33.258 11.4786C35.2173 9.71502 37.133 7.90354 39.114 6.16569C39.5131 5.81591 39.9086 4.65611 40.7177 5.85641C41.3091 6.73638 41.4324 7.32916 40.3222 7.97349C38.2541 9.17379 36.2767 10.5287 34.2739 11.8395C34.0091 12.0125 33.5483 12.042 33.6027 12.5427Z" fill="#A14BFF"/>
<path d="M49.821 0.587631C50.1911 1.68851 50.8732 2.28498 52.4443 2.68631C50.8696 3.06186 50.1802 3.70987 49.8863 5.34094C49.4074 3.83505 48.845 3.04713 47.3611 2.80044C48.6273 2.22975 49.4691 1.71061 49.821 0.591313V0.587631Z" fill="#A14BFF"/>
</svg>
