<svg width="28" height="28" viewBox="0 0 28 28" fill="none" xmlns="http://www.w3.org/2000/svg">
<path d="M14.0037 0C6.26982 0 0 6.26965 0 14.0035C0 21.7377 6.26982 28.0068 14.0037 28.0068C21.7383 28.0068 28.0075 21.7377 28.0075 14.0035C28.0075 6.27015 21.7383 0.000668884 14.0035 0.000668884L14.0037 0ZM20.4256 20.1971C20.1748 20.6084 19.6364 20.7389 19.225 20.4863C15.9371 18.478 11.798 18.0232 6.92349 19.1369C6.45376 19.2439 5.98554 18.9496 5.87852 18.4797C5.77099 18.0098 6.06413 17.5416 6.53503 17.4345C11.8694 16.2158 16.4451 16.7406 20.1364 18.9964C20.5477 19.2489 20.6782 19.7857 20.4256 20.1971ZM22.1397 16.3841C21.8236 16.8978 21.1514 17.06 20.638 16.7439C16.8739 14.4302 11.136 13.7602 6.68369 15.1117C6.10627 15.2861 5.49641 14.9607 5.32117 14.3843C5.14726 13.8068 5.47284 13.1981 6.04925 13.0226C11.135 11.4794 17.4575 12.2269 21.7801 14.8832C22.2935 15.1993 22.4557 15.8714 22.1397 16.3841ZM22.2868 12.4135C17.7735 9.73281 10.3271 9.48633 6.01798 10.7942C5.32602 11.004 4.59425 10.6134 4.38456 9.92144C4.17486 9.22914 4.56516 8.49788 5.25762 8.28751C10.2042 6.78586 18.4273 7.07599 23.6236 10.1607C24.2473 10.5301 24.4513 11.334 24.0818 11.9555C23.7139 12.5779 22.9079 12.7831 22.2875 12.4135H22.2868Z" fill="white"/>
</svg>
