<svg width="14" height="14" viewBox="0 0 14 14" fill="none" xmlns="http://www.w3.org/2000/svg">
<path d="M6.57786 0.56142C6.76631 0.237869 7.23373 0.237868 7.42219 0.561419L9.41871 3.98923C9.48774 4.10775 9.60342 4.1918 9.73747 4.22083L13.6145 5.06038C13.9804 5.13962 14.1249 5.58417 13.8754 5.86338L11.2323 8.82143C11.1409 8.92371 11.0967 9.0597 11.1105 9.19617L11.5101 13.1428C11.5479 13.5154 11.1697 13.7901 10.8271 13.6391L7.19703 12.0395C7.07151 11.9842 6.92853 11.9842 6.80301 12.0395L3.17298 13.6391C2.83034 13.7901 2.45219 13.5154 2.4899 13.1428L2.8895 9.19617C2.90332 9.0597 2.85914 8.92371 2.76775 8.82143L0.124662 5.86338C-0.124819 5.58417 0.0196224 5.13962 0.385573 5.06038L4.26257 4.22083C4.39663 4.1918 4.51231 4.10775 4.58134 3.98923L6.57786 0.56142Z" fill="#AEB9E1"/>
</svg>
