<svg width="14" height="14" viewBox="0 0 14 14" fill="none" xmlns="http://www.w3.org/2000/svg">
<path d="M8.73971 0C9.01579 7.45899e-05 9.23971 0.223904 9.23971 0.5V3.11523L11.5063 1.80664C11.7453 1.66882 12.0508 1.7505 12.1889 1.98926L13.9311 5.00781C14.0691 5.2468 13.9872 5.5522 13.7485 5.69043L11.4809 6.99902L13.7485 8.30859C13.9874 8.4467 14.0689 8.75217 13.9311 8.99121L12.1889 12.0098C12.0508 12.2488 11.7454 12.3304 11.5063 12.1924L9.23971 10.8828V13.5C9.23971 13.7761 9.01579 13.9999 8.73971 14H5.25534C4.97932 13.9998 4.75534 13.776 4.75534 13.5V10.8828L2.49264 12.1904C2.25353 12.3284 1.94707 12.2469 1.80905 12.0078L0.0668588 8.98926C-0.0707403 8.75023 0.0116087 8.44467 0.250453 8.30664L2.51315 6.99902L0.250453 5.69238C0.0115758 5.55428 -0.0709393 5.24881 0.0668588 5.00977L1.80905 1.99121C1.94711 1.75222 2.25358 1.67065 2.49264 1.80859L4.75534 3.11523V0.5C4.75534 0.223951 4.97932 0.000151275 5.25534 0H8.73971ZM6.99948 5.12695C5.96537 5.12695 5.12643 5.96568 5.12643 7C5.12656 8.03421 5.96545 8.87305 6.99948 8.87305C8.03334 8.87286 8.87141 8.03409 8.87155 7C8.87155 5.9658 8.03342 5.12714 6.99948 5.12695Z" fill="#AEB9E1"/>
</svg>
