<svg width="14" height="14" viewBox="0 0 14 14" fill="none" xmlns="http://www.w3.org/2000/svg">
<path d="M6.99792 2.43652C11.1534 2.43652 13.2661 5.50069 13.8934 6.60742C14.0329 6.85355 14.0329 7.14644 13.8934 7.39258C13.2662 8.49914 11.1536 11.5645 6.99792 11.5645C2.84231 11.5644 0.729639 8.49913 0.102417 7.39258C-0.0369935 7.14646 -0.0370722 6.85351 0.102417 6.60742C0.729688 5.50081 2.8424 2.43659 6.99792 2.43652ZM6.9989 4.46484C5.59877 4.4651 4.46375 5.60078 4.46375 7.00098C4.46398 8.40098 5.59891 9.53587 6.9989 9.53613C8.39912 9.53613 9.5348 8.40114 9.53503 7.00098C9.53503 5.60062 8.39926 4.46484 6.9989 4.46484Z" fill="#AEB9E1"/>
</svg>
