<svg width="12" height="12" viewBox="0 0 12 12" fill="none" xmlns="http://www.w3.org/2000/svg">
<path d="M12 10.6155C12 10.7379 11.9514 10.8553 11.8648 10.9419C11.7783 11.0284 11.6609 11.0771 11.5385 11.0771H0.461538C0.339131 11.0771 0.221737 11.0284 0.135181 10.9419C0.0486262 10.8553 0 10.7379 0 10.6155V1.38476C0 1.26235 0.0486262 1.14495 0.135181 1.0584C0.221737 0.971844 0.339131 0.923218 0.461538 0.923218C0.583946 0.923218 0.70134 0.971844 0.787895 1.0584C0.874451 1.14495 0.923077 1.26235 0.923077 1.38476V7.65591L3.825 4.74822C3.9125 4.66155 4.03069 4.61293 4.15385 4.61293C4.27701 4.61293 4.39519 4.66155 4.48269 4.74822L6 6.27129L8.80962 3.46168L7.97885 2.63668C7.91623 2.56995 7.8738 2.48685 7.85644 2.39701C7.83908 2.30716 7.84752 2.21424 7.88077 2.12899C7.9167 2.04543 7.97623 1.97418 8.05207 1.92396C8.1279 1.87375 8.21674 1.84676 8.30769 1.84629H10.6154C10.7378 1.84629 10.8552 1.89492 10.9417 1.98148C11.0283 2.06803 11.0769 2.18543 11.0769 2.30783V4.61553C11.0772 4.70665 11.0505 4.79581 11.0002 4.87178C10.9499 4.94776 10.8782 5.00714 10.7942 5.04245C10.7373 5.06506 10.6766 5.0768 10.6154 5.07706C10.4928 5.07655 10.3751 5.02906 10.2865 4.94437L9.46154 4.1136L6.32885 7.25206C6.24134 7.33873 6.12316 7.38735 6 7.38735C5.87684 7.38735 5.75866 7.33873 5.67115 7.25206L4.15385 5.72899L0.923077 8.95976V10.154H11.5385C11.6609 10.154 11.7783 10.2026 11.8648 10.2892C11.9514 10.3757 12 10.4931 12 10.6155Z" fill="#AEB9E1"/>
</svg>
