<svg width="11" height="12" viewBox="0 0 11 12" fill="none" xmlns="http://www.w3.org/2000/svg">
<path d="M3.85698 0.857149H6.42843C6.54209 0.857149 6.6511 0.811996 6.73148 0.731622C6.81185 0.651249 6.857 0.542239 6.857 0.428574C6.857 0.314909 6.81185 0.2059 6.73148 0.125527C6.6511 0.0451533 6.54209 0 6.42843 0L3.85698 0C3.74332 0 3.63431 0.0451533 3.55393 0.125527C3.47356 0.2059 3.42841 0.314909 3.42841 0.428574C3.42841 0.542239 3.47356 0.651249 3.55393 0.731622C3.63431 0.811996 3.74332 0.857149 3.85698 0.857149V0.857149Z" fill="#AEB9E1"/>
<path d="M5.1429 1.71423C4.12573 1.71423 3.1314 2.01586 2.28566 2.58097C1.43991 3.14608 0.780735 3.94929 0.391482 4.88903C0.00222834 5.82877 -0.0996181 6.86283 0.0988216 7.86045C0.297261 8.85808 0.787074 9.77445 1.50632 10.4937C2.22557 11.2129 3.14194 11.7028 4.13957 11.9012C5.13719 12.0996 6.17125 11.9978 7.11099 11.6085C8.05074 11.2193 8.85395 10.5601 9.41905 9.71436C9.98416 8.86862 10.2858 7.87429 10.2858 6.85713C10.283 5.49402 9.74021 4.18755 8.77634 3.22368C7.81248 2.25981 6.50601 1.71706 5.1429 1.71423V1.71423ZM7.5697 5.04104L5.44825 7.16249C5.36634 7.24169 5.25685 7.28597 5.1429 7.28597C5.02894 7.28597 4.91945 7.24169 4.83754 7.16249C4.75706 7.08123 4.71191 6.97149 4.71191 6.85713C4.71191 6.74276 4.75706 6.63302 4.83754 6.55177L6.95898 4.43032C6.99741 4.3835 7.04521 4.34525 7.09931 4.31801C7.15342 4.29078 7.21262 4.27518 7.27312 4.27221C7.33362 4.26924 7.39407 4.27896 7.45058 4.30076C7.50709 4.32256 7.55841 4.35595 7.60124 4.39878C7.64407 4.44161 7.67746 4.49293 7.69926 4.54944C7.72106 4.60595 7.73079 4.6664 7.72781 4.7269C7.72484 4.7874 7.70924 4.84661 7.68201 4.90071C7.65478 4.95481 7.61652 5.00262 7.5697 5.04104V5.04104Z" fill="#AEB9E1"/>
</svg>
