<svg width="11" height="12" viewBox="0 0 11 12" fill="none" xmlns="http://www.w3.org/2000/svg">
<path d="M0 10.0905C0 8.25235 1.49008 6.76227 3.32819 6.76227H7.05425C8.89236 6.76227 10.3824 8.25235 10.3824 10.0905V10.0905C10.3824 10.7032 9.88575 11.1999 9.27305 11.1999H1.1094C0.496695 11.1999 0 10.7032 0 10.0905V10.0905Z" fill="#AEB9E1"/>
<path d="M5.1932 5.91677C6.82707 5.91677 8.15159 4.59225 8.15159 2.95837C8.15159 1.3245 6.82707 -2.28882e-05 5.1932 -2.28882e-05C3.55932 -2.28882e-05 2.2348 1.3245 2.2348 2.95837C2.2348 4.59225 3.55932 5.91677 5.1932 5.91677Z" fill="#AEB9E1"/>
</svg>
