<svg width="296" height="64" viewBox="0 0 296 64" fill="none" xmlns="http://www.w3.org/2000/svg">
<path d="M0 63.7812L19.7476 57.4429C19.9489 57.3783 20.1245 57.2516 20.2493 57.081L32.2554 40.6599C32.5824 40.2126 33.2108 40.1165 33.6566 40.4455L52.2006 54.1353C52.6566 54.472 53.301 54.3627 53.6205 53.8945L66.8429 34.5186C67.154 34.0627 67.7757 33.9451 68.2318 34.2558L86.7573 46.873C86.8576 46.9413 86.9695 46.9908 87.0875 47.019L118.966 54.6447C119.25 54.7126 119.55 54.653 119.786 54.4815L145.584 35.7648C145.7 35.6807 145.796 35.5728 145.867 35.4482L165.068 1.55188C165.453 0.872297 166.433 0.876609 166.812 1.55955L197.482 56.8287C197.658 57.1464 197.993 57.3435 198.356 57.3435H232.949C233.208 57.3435 233.456 57.2437 233.642 57.0649L257.203 34.446C257.625 34.0409 258.303 34.0829 258.672 34.5372L274.93 54.5663C275.029 54.6882 275.155 54.7851 275.299 54.8491L295.294 63.7812" stroke="#A14BFF" stroke-width="1.2" stroke-linecap="round"/>
</svg>
